# Blender v2.79 (sub 0) OBJ File: ''
# www.blender.org
mtllib marker.mtl
o Cube
v -0.000000 0.998154 0.000000
v 0.553192 2.104537 -0.553191
v 0.553191 2.104537 0.553192
v -0.553192 2.104537 0.553192
v -0.553192 2.104537 -0.553192
v 0.273193 2.104537 -0.273193
v 0.273193 2.104537 0.273194
v -0.273194 2.104537 0.273193
v -0.273193 2.104537 -0.273193
v 0.273193 2.855994 -0.273193
v 0.273193 2.855994 0.273194
v -0.273194 2.855994 0.273193
v -0.273193 2.855994 -0.273193
vn 0.6626 0.3490 -0.6626
vn -0.6626 0.3490 -0.6626
vn -0.3015 0.9045 -0.3015
vn 0.3015 0.9045 -0.3015
vn 0.0000 -1.0000 0.0000
vn 0.6626 0.3490 0.6626
vn -0.6626 0.3490 0.6626
vn -0.3015 0.9045 0.3015
vn 0.3015 0.9045 0.3015
vn 0.5773 0.5773 0.5773
vn -0.5773 0.5773 0.5773
vn 0.5773 0.5773 -0.5773
vn -0.5773 0.5773 -0.5773
usemtl Material
s 1
f 2//1 5//2 9//3 6//4
f 1//5 2//1 3//6
f 1//5 3//6 4//7
f 1//5 4//7 5//2
f 2//1 1//5 5//2
f 8//8 7//9 11//10 12//11
f 4//7 3//6 7//9 8//8
f 3//6 2//1 6//4 7//9
f 5//2 4//7 8//8 9//3
f 10//12 13//13 12//11 11//10
f 7//9 6//4 10//12 11//10
f 9//3 8//8 12//11 13//13
f 6//4 9//3 13//13 10//12
